<?xml version="1.0" encoding="UTF-8"?>
<!DOCTYPE svg PUBLIC "-//W3C//DTD SVG 1.1//EN" "http://www.w3.org/Graphics/SVG/1.1/DTD/svg11.dtd">
<!-- Creator: CorelDRAW X5 -->
<svg xmlns="http://www.w3.org/2000/svg" xml:space="preserve" width="8.5in" height="11in" style="shape-rendering:geometricPrecision; text-rendering:geometricPrecision; image-rendering:optimizeQuality; fill-rule:evenodd; clip-rule:evenodd"
viewBox="0 0 8.5 11"
 xmlns:xlink="http://www.w3.org/1999/xlink">
 <defs>
  <style type="text/css">
   <![CDATA[
    .str0 {stroke:#50047A;stroke-width:0.003}
    .str1 {stroke:#FBD802;stroke-width:0.003}
    .str2 {stroke:#FEFEFE;stroke-width:0.0590551}
    .fil2 {fill:#FEFEFE}
    .fil0 {fill:#50047A}
    .fil1 {fill:#FBD802}
   ]]>
  </style>
 </defs>
 <g id="Layer_x0020_1">
  <metadata id="CorelCorpID_0Corel-Layer"/>
  <g id="_400636768">
   <path id="_401121128" class="fil0 str0" d="M4.08858 2.40135l-0.0124685 0.135827 0.375547 0c-0.0168425,-0.023622 -0.0288701,-0.0500866 -0.0358701,-0.0782992 -0.00459449,-0.018374 -0.00677953,-0.037185 -0.00656299,-0.0562126l-0.320646 -0.00131496zm-1.21369 0.432197c0.00568898,-0.016185 0.00743701,-0.0334646 0.00481102,-0.0505236 -0.00437402,-0.029311 -0.0207756,-0.0553386 -0.0452756,-0.0717402l0.388016 -0.137579c-0.00874803,0.0177165 -0.010063,0.0382756 -0.00306299,0.0568701 0.00984252,0.0262441 0.0339016,0.0443976 0.0618976,0.0463661l-0.406386 0.156606zm-0.279091 0.0741496c-0.00481102,-0.027122 -0.000653543,-0.0549016 0.011811,-0.0793976 0.00328346,-0.00677953 0.00722047,-0.013122 0.011811,-0.0190276 -0.00765354,-0.0339055 -0.00393701,-0.0693386 0.0107205,-0.100835 0.0150906,-0.0325866 0.0400236,-0.0599291 0.0723937,-0.0748031l0.514657 -0.19685c0.0404606,-0.0153071 0.0846457,-0.0170591 0.127075,-0.00831102 0.0470276,0.00962598 0.0901142,0.033248 0.123579,0.0675866l0.307744 -0.0592756c0.030622,-0.0393701 0.0675866,-0.0734882 0.109142,-0.100831 0.0741496,-0.0487756 0.160764,-0.0754567 0.249563,-0.0748031l0.351051 0.0035c0.0583976,0.00525197 0.111984,0.0334646 0.154854,0.0737087 0.0244961,0.0229685 0.0446181,0.0503071 0.0594921,0.0804921l0.378827 0.0879252c0.014,-0.0304016 0.0391535,-0.0540236 0.0702126,-0.0664921 0.0229646,-0.00918504 0.0487756,-0.00787402 0.0737087,-0.00699606 0.0382756,0.00152756 0.0745827,0.016622 0.111547,0.0279961 0.0682441,0.0212165 0.136264,0.0435236 0.202102,0.0715197 0.0778622,0.0330276 0.15398,0.0699921 0.223752,0.117673 0.00787402,0.0054685 0.015748,0.010937 0.023622,0.0164055 0.0277795,0.0199016 0.0570866,0.0398071 0.0708661,0.0706457 0.00721654,0.016185 0.0107165,0.0339016 0.011811,0.0516181 0.0019685,0.0356535 -0.00831102,0.0710866 -0.0290906,0.100177l-0.191819 0c-0.0304016,-0.00831102 -0.0549016,-0.0308386 -0.0660551,-0.0603661 -0.0142165,-0.0378425 -0.00371654,-0.0802717 0.026248,-0.107394l-0.298339 -0.127516c0.00415748,0.0150906 0.00371654,0.0312756 -0.00174803,0.0461496 -0.00984252,0.0273425 -0.0347795,0.0465866 -0.0636496,0.0494331l0.318461 0.15048 0.0481181 0.0599291 -0.26378 0c-0.0428701,-0.00809055 -0.0807087,-0.0314961 -0.119642,-0.0516181 -0.00809055,-0.00415748 -0.0159646,-0.0085315 -0.0240591,-0.0129055 -0.0319331,-0.0170591 -0.0636496,-0.0347756 -0.0931772,-0.0557717 -0.00305906,-0.00218898 -0.00612205,-0.00437795 -0.00918504,-0.00656299 -0.0137795,-0.00962598 -0.0273386,-0.019685 -0.0371811,-0.033248 -0.00875197,-0.0120276 -0.014874,-0.0255906 -0.0190315,-0.0398071 -0.00437402,-0.0146535 -0.00634252,-0.0301811 -0.00590551,-0.0454921l-0.380358 -0.0820236c-0.0089685,0.0269055 -0.0258071,0.0503071 -0.0485551,0.0671496 -0.0172795,0.0129055 -0.036748,0.023185 -0.0581811,0.0253701l-0.606299 0c-0.0286535,0 -0.0566496,-0.00765354 -0.0809291,-0.0229646 -0.0238386,-0.0150906 -0.0430866,-0.0367441 -0.0551181,-0.0623346l-0.283465 0.0575236c-0.0179331,0.0323701 -0.0415551,0.0612402 -0.0699882,0.0848622 -0.0234055,0.0194685 -0.0498701,0.0347795 -0.0778661,0.0468071l-0.297028 0.126421 -0.360673 0 -0.122047 0.012252z"/>
   <path id="_401120960" class="fil0 str0" d="M1.50197 6.73775c-0.017937,-0.00372047 -0.0363071,-0.00240551 -0.0535866,0.00371654 -0.019248,0.00678346 -0.0356535,0.0194685 -0.0474646,0.0360906 -0.00415354,0.00568504 -0.0102795,0.00940551 -0.0172795,0.010063 -0.00721654,0.000874016 -0.0142165,-0.0015315 -0.0194646,-0.00656299 -0.0286535,-0.0566496 -0.0538071,-0.115047 -0.0750236,-0.17498 -0.0203386,-0.0573031 -0.0371811,-0.115921 -0.0503031,-0.175413 0.0209961,0.0035 0.0422126,0.00065748 0.0616772,-0.00787402 0.017063,-0.00765748 0.0321535,-0.0194685 0.0433071,-0.0343386 0.0245,0.0391496 0.0472441,0.0796142 0.0678071,0.120953 0.0365236,0.0734921 0.0667087,0.149823 0.0903307,0.228346zm-0.292213 -1.52931c-0.00765748,0.0597126 -0.011374,0.119642 -0.0111575,0.179791 0.000220472,0.0454961 0.0085315,0.0907717 0.00940551,0.136264 0.000437008,0.0181535 -0.000874016,0.0363071 -0.000437008,0.0544646 0.000874016,0.0310551 0.00328346,0.0623346 0.007,0.0931732 -0.0111535,-0.0269016 -0.034122,-0.0472441 -0.0623346,-0.0551181 -0.012689,-0.0035 -0.0260276,-0.00459055 -0.0391535,-0.00240551 -0.0159646,0.00262598 -0.0310591,0.00962598 -0.0435236,0.020122l-0.00284646 -0.429134 0.014874 0.0035c-0.0015315,0.0129055 0.00262598,0.025811 0.0111575,0.0356535 0.0107165,0.012248 0.0271181,0.0181535 0.0428661,0.0146535 0.00743701,-0.00175197 0.014437,-0.0054685 0.020126,-0.0105 0.0109331,-0.00962205 0.00918504,-0.027122 0.0148701,-0.0409016 0.00372047,-0.00896457 0.00831102,-0.0185906 0.0172795,-0.019685 0.011811,-0.00131102 0.022311,0.00809449 0.021874,0.020122zm0.267717 -1.00065c-0.0203425,0.0444016 -0.0404646,0.0887992 -0.0605866,0.133421 -0.029311,0.0651772 -0.0581811,0.130358 -0.0868346,0.195756 0.00109449,-0.0255906 -0.00721654,-0.0507441 -0.023185,-0.0706496 -0.0146535,-0.0181535 -0.0347756,-0.0310551 -0.0575236,-0.0367441 0.019248,-0.0662717 0.0459331,-0.130138 0.0796181,-0.190287 0.012248,-0.0216535 0.0251496,-0.0430906 0.0391496,-0.0636496 0.00612598,-0.00831102 0.015311,-0.0139961 0.0255906,-0.0159646 0.00984252,-0.00175197 0.0199055,-0.000220472 0.0284331,0.00481102l0.0553386 0.0433071zm0.105425 -0.384953c-0.0369646,0.0111535 -0.0715236,0.0288701 -0.102146,0.0522756 -0.013122,0.0100591 -0.0255906,0.0212165 -0.0369646,0.0332441 -0.0299646,0.00240551 -0.0592717,0.0111575 -0.0855197,0.0260276 -0.033685,0.0190315 -0.0623346,0.0461535 -0.0796142,0.0807087l-0.149606 0.308402c-0.0251535,0.0516181 -0.0356535,0.108921 -0.0404646,0.166228 -0.00371654,0.0452756 -0.0054685,0.0914252 0.00962205,0.134075 0.010937,0.0308425 0.028874,0.0588386 0.0522756,0.0818031 -0.0144331,0.0549016 -0.0275591,0.110236 -0.0391496,0.166012 -0.00874803,0.0426496 -0.0168425,0.0853031 -0.0238425,0.128169 -0.020122,-0.00174803 -0.0404646,0.00109449 -0.0594921,0.00831496 -0.0538071,0.0205591 -0.0885827,0.0728346 -0.0866142,0.130358l-0.00721654 0.563429c-0.000437008,0.0354331 0.00765354,0.0706457 0.0262441,0.100831 0.027122,0.0439646 0.0723976,0.0739291 0.123579,0.0818031 0.0159685,0.0748031 0.034122,0.149386 0.0544646,0.223094 0.00984252,0.0356535 0.020122,0.0713031 0.0310591,0.106736 -0.0314961,0.015748 -0.0579646,0.0400276 -0.0761181,0.0699921 -0.0369646,0.0608071 -0.0264646,0.136921 0.00590551,0.201661l0.17826 0.440071c0.020122,0.0494331 0.0577441,0.0896772 0.105642,0.112862 0.0671496,0.0323701 0.146106,0.0279961 0.209098,-0.0120315l0 -0.451441c-0.0269016,-0.0958031 -0.0802677,-0.18176 -0.12948,-0.268594 -0.021874,-0.0387126 -0.0433071,-0.0791772 -0.0796181,-0.104331 -0.027122,-0.0188071 -0.0594921,-0.0290866 -0.0925197,-0.0297441l-0.0487756 -0.315618c0.024063,-0.00874803 0.0452756,-0.0244961 0.0605866,-0.0450551 0.0181535,-0.0240591 0.0264685,-0.0540236 0.026248,-0.0842087l0 -0.546807c-0.00131102,-0.0299646 -0.014437,-0.0579606 -0.029748,-0.0839882 -0.0190276,-0.0325906 -0.0454921,-0.0603701 -0.0772087,-0.0807087 0.014874,-0.0522756 0.028437,-0.104988 0.040248,-0.157917 0.0102795,-0.0457165 0.0194646,-0.0914291 0.0273386,-0.137579 0.0524921,-0.0242795 0.0997362,-0.0583976 0.139106,-0.100831 0.0325906,-0.0349961 0.0540276,-0.0783031 0.0758976,-0.120953 0.0354331,-0.0688976 0.0748031,-0.137358 0.0857402,-0.213472l-0.00721654 -0.462819z"/>
   <path id="_401121104" class="fil0 str0" d="M3.24016 8.27143c-0.0111535,0.0129055 -0.0207795,0.0269055 -0.0284331,0.0422165 -0.00787402,0.015748 -0.0137795,0.0325866 -0.0172795,0.0498661l-0.312555 -0.134732c0.0133425,-0.013122 0.0240591,-0.0288701 0.0314961,-0.0461496 0.00765354,-0.017937 0.011374,-0.0369646 0.011374,-0.0564291 0.0419961,0.0142165 0.0833346,0.0299646 0.124016,0.0474606 0.0658346,0.0284331 0.129701,0.0610236 0.191382,0.0977677zm1.21566 0.137358c-0.121173,-0.0104961 -0.243441,-0.0124646 -0.365047,-0.0054685 0.00765354,0.0225315 0.00962205,0.0465906 0.00546457,0.0699921 -0.00415354,0.0242795 -0.0146535,0.0468071 -0.0304016,0.0658346 0.131236,-0.00349606 0.262469,-0.00568504 0.393701,-0.00655906l-0.00371654 -0.123799zm1.18613 -0.263559c-0.00634646,0.0089685 -0.0089685,0.020122 -0.007,0.0308386 0.00218504,0.0120315 0.00940551,0.0225276 0.020122,0.0284331l-0.310587 0.130579c-0.00634252,0.00262598 -0.0129055,0.00524803 -0.019685,0.00415748 -0.00765354,-0.00109449 -0.0146535,-0.0054685 -0.0190276,-0.011811l-0.0238425 -0.0426535c-0.00306299,-0.00874803 -0.00218504,-0.0181535 0.00240551,-0.0262441 0.00372047,-0.00656299 0.00962598,-0.0115945 0.016622,-0.0142165 0.0395906,-0.0216535 0.0804921,-0.041122 0.122488,-0.0581811 0.0664882,-0.027122 0.135386,-0.0481181 0.205598,-0.0627756l0.0129055 0.021874zm-3.41098 -0.212161c0.0815827,0.0229646 0.159886,0.0559921 0.232937,0.0986457 0.0619016,0.0360866 0.119642,0.0785197 0.172354,0.126858 0.000220472,0.0238386 0.0054685,0.0472441 0.015748,0.0686772 0.018374,0.0384961 0.0533701,0.0653976 0.0866142,0.0925197 0.0542441,0.0444016 0.122705,0.0667126 0.187882,0.0936142 0.116799,0.0483386 0.237098,0.0874882 0.36002,0.117453 0.0293071,0.00568898 0.0597087,0.00306299 0.0877087,-0.00721654 0.0347756,-0.0129055 0.0640827,-0.0369646 0.0833307,-0.0686772l0.36111 0.0748031c0.0085315,0.0301811 0.0234055,0.0581772 0.0439646,0.0817992 0.0433071,0.0500906 0.108051,0.0756811 0.174539,0.0734921l0.471567 0c0.037622,-0.0019685 0.0723976,-0.018374 0.104551,-0.0380591 0.0548976,-0.0336811 0.0964567,-0.0850827 0.117673,-0.145886l0.325457 -0.0640866c0.013563,0.0229646 0.032811,0.0422126 0.0559961,0.0557756 0.0334646,0.019685 0.0745827,0.0174961 0.113953,0.0177165 0.0555551,0.000437008 0.109142,-0.0185945 0.162728,-0.0343425 0.103457,-0.0304016 0.198602,-0.0835512 0.297028,-0.128169 0.0566496,-0.025811 0.116795,-0.0465866 0.164039,-0.0866142 0.0229685,-0.0194685 0.0433071,-0.0424331 0.0509646,-0.0710866 0.00656299,-0.0251535 0.00459449,-0.0520551 -0.00590551,-0.0758937l0.272091 -0.193571 -0.507437 0 -0.0461496 0.0474606c-0.106736,0.040685 -0.219161,0.0658386 -0.324366,0.110457 -0.0640866,0.027122 -0.131669,0.0496496 -0.184165,0.0949252 -0.0395866,0.034122 -0.0713031,0.0765551 -0.0927362,0.124453 -0.0509646,0.00328346 -0.101709,0.0089685 -0.152232,0.017063 -0.0588346,0.00962205 -0.117236,0.0223071 -0.174539,0.0384921 -0.013563,-0.0253701 -0.033685,-0.0470236 -0.0581811,-0.0623346 -0.0374016,-0.0234016 -0.0842087,-0.0205591 -0.129047,-0.0205591l-0.424976 0c-0.0605866,0 -0.124236,0.000437008 -0.17126,0.0367441 -0.021874,0.0168425 -0.0400276,0.0378386 -0.0533701,0.0616811 -0.0662717,-0.0229685 -0.134516,-0.0400276 -0.20385,-0.0509646 -0.0415551,-0.00655906 -0.0835512,-0.0109331 -0.125764,-0.013122 -0.012248,-0.0384961 -0.0352165,-0.0726142 -0.0660551,-0.0984252 -0.0179331,-0.0150906 -0.0389331,-0.026248 -0.0605866,-0.0356535l-0.595142 -0.259185 -0.417106 0 -0.149386 0.0212165z"/>
   <path id="_401119760" class="fil0 str0" d="M7.41448 5.24519l-0.018374 0.00240551c0.00831102,0.0199016 -0.000216535,0.0426496 -0.0194646,0.0522756 -0.0111575,0.0054685 -0.0242795,0.0054685 -0.0356535,0.000437008 -0.011811,-0.00525197 -0.0155276,-0.020122 -0.0244961,-0.0295276 -0.0085315,-0.00874803 -0.017937,-0.017063 -0.0277795,-0.0242795 0.0054685,0.0968937 0.007,0.194008 0.00415748,0.290902 -0.00131102,0.0483386 -0.00372047,0.0966772 -0.00721654,0.144795 0.0124646,-0.018811 0.0308386,-0.0330276 0.0522717,-0.0404646 0.023185,-0.00809449 0.0483386,-0.00765354 0.0713031,0.00131102 0.0035,-0.0817992 0.0054685,-0.163602 0.00590551,-0.245406 0.000440945,-0.0507441 0.000220472,-0.101705 -0.000653543,-0.152449zm-0.508748 1.81737c0.0452756,0.0137795 0.0936102,0.0137795 0.138669,-0.000437008 0.0251535,-0.00787402 0.0485551,-0.0203425 0.0699921,-0.0356535 0.0417756,-0.0297441 0.0662717,-0.0772087 0.0944882,-0.120516 0.0533661,-0.0818031 0.0850827,-0.175413 0.118764,-0.267496 0.0269055,-0.0737126 0.0649606,-0.146764 0.0575236,-0.223756 -0.00415354,-0.0426496 -0.0406811,-0.0765512 -0.0487756,-0.118547 -0.00612205,-0.0321496 -0.0019685,-0.0653976 0.00240945,-0.0979882 0.011811,-0.0866142 0.0301811,-0.17235 0.0553346,-0.256122 0.029748,-0.00656299 0.0570866,-0.0212165 0.0789606,-0.0422126 0.0374016,-0.035874 0.0524921,-0.0881457 0.0699882,-0.137579 0.0275591,-0.0776457 0.0352165,-0.16076 0.0393701,-0.24322 0.00415748,-0.0826772 0.00437795,-0.166228 -0.0148701,-0.2465 -0.013563,-0.0557717 -0.0242795,-0.114173 -0.0601496,-0.158354 -0.0308386,-0.0380591 -0.0721772,-0.0660551 -0.118768,-0.0807087 -0.0015315,-0.0603661 -0.00984252,-0.120516 -0.0249331,-0.179134 -0.0111535,-0.0435276 -0.025811,-0.0859567 -0.0439646,-0.126858 0.0345591,-0.0199055 0.0614606,-0.0509646 0.0761181,-0.0879291 0.0129016,-0.0325866 0.0120276,-0.0686772 0.00655906,-0.103673 -0.0089685,-0.0581811 -0.0258071,-0.11461 -0.0505236,-0.16798 -0.0321535,-0.122484 -0.0848661,-0.238406 -0.155732,-0.343394 -0.0299646,-0.0444016 -0.0662717,-0.0866142 -0.116358,-0.103894 -0.0264646,-0.00918504 -0.0546811,-0.0124646 -0.0826772,-0.0100591 -0.029748,0.00262205 -0.0586181,0.0120276 -0.0842087,0.0273386l0 0.224846 0.188102 -0.00109055 0.127075 0.308614 -0.0938307 0.0426535 -0.141295 -0.325024 -0.0772087 0.0035c-0.00524803,0.10761 0.010937,0.215224 0.0474646,0.316713 0.0199016,0.0555551 0.0461496,0.109142 0.0866142,0.151791 0.0269016,0.0282165 0.0592717,0.0509646 0.0951417,0.0664921 0.00809449,0.0522756 0.018374,0.10411 0.0308425,0.155512 0.015311,0.0634291 0.0341181,0.125984 0.0559921,0.187445 -0.0260276,0.0207795 -0.0463701,0.0476811 -0.0594921,0.0783031 -0.0164055,0.0384961 -0.016622,0.0813661 -0.020122,0.123358 -0.00590551,0.0686811 -0.00568898,0.137579 -0.00962598,0.206256 -0.00634252,0.11002 -0.0181535,0.221567 0.0107165,0.327209 0.0142205,0.0520591 0.040685,0.100177 0.0772126,0.139984l-0.0404646 0.246937c-0.014,0.0129055 -0.0282165,0.0255906 -0.0426535,0.0378386 -0.0155276,0.013126 -0.0328071,0.0240591 -0.0474606,0.0380591 -0.0330276,0.0314961 -0.0555551,0.0721772 -0.0791772,0.111547 -0.0454961,0.0754606 -0.0916457,0.151138 -0.114173,0.236004l0 0.168413c0.0312756,0.00240945 0.0623346,-0.00743307 0.0863937,-0.0273386 0.0205591,-0.0170591 0.029748,-0.0437441 0.0402441,-0.0686772 0.0349961,-0.0822402 0.0667126,-0.165795 0.0951457,-0.250441 0.00481102,0.0238425 0.018811,0.0448386 0.0391535,0.0581811 0.0234016,0.0155315 0.0529291,0.0194685 0.0796142,0.0107165l-0.13189 0.297685c-0.011811,0.0113701 -0.0264646,0.0192441 -0.0426535,0.0225276 -0.0275591,0.0054685 -0.0516181,-0.023185 -0.0796142,-0.0260276 -0.0336811,-0.00328346 -0.0678031,-0.000437008 -0.10061,0.00831102l0.0133425 0.254374z"/>
   <g>
    <path id="_401410856" class="fil1 str1" d="M5.78806 2.80731c-0.0150945,-0.0172795 -0.0314961,-0.033248 -0.0494331,-0.0474646 -0.0360906,-0.0286535 -0.0774291,-0.0498701 -0.11811,-0.0717402 -0.0789567,-0.0424331 -0.16098,-0.0789606 -0.246063,-0.106736 -0.0439646,-0.0142165 -0.0877087,-0.030185 -0.133638,-0.0352165 -0.0194685,-0.00218504 -0.0391535,-0.0019685 -0.0588386,-0.0035 -0.015748,-0.00109055 -0.0336811,0.0015315 -0.0433071,-0.0100591 -0.0111535,-0.013563 -0.0104961,-0.0330276 0.00065748,-0.0468071 0.00787402,-0.00962598 0.020122,-0.014874 0.0325906,-0.0137795 0.0612402,0.00743701 0.121827,0.0194646 0.181319,0.0358701 0.0783031,0.0216535 0.15289,0.0548976 0.227472,0.0870512 0.0761142,0.0328071 0.153764,0.0647441 0.216098,0.118768 0.0194646,0.0168425 0.0404646,0.0343386 0.0446181,0.0592717 0.00218898,0.0124685 0.00437402,0.0260276 -0.0035,0.0354331 -0.013122,0.015748 -0.0374016,0.015311 -0.0498661,-0.00109055z"/>
    <path id="_401410280" class="fil1 str1" d="M5.74978 2.81715c-0.0115906,-0.00722047 -0.0231811,-0.014437 -0.0349921,-0.0216535 -0.0225315,-0.0137795 -0.0452756,-0.0273425 -0.0680236,-0.0404646 -0.011811,-0.00634252 -0.026685,-0.00306299 -0.0347795,0.00765354 -0.00962205,0.012685 -0.00655906,0.0310591 0.007,0.0398071 0.014,0.010937 0.0290906,0.0207795 0.0448386,0.0290906 0.0209961,0.010937 0.0430906,0.0194685 0.0660551,0.0251535 0.0100591,0.00306299 0.0209961,-0.0015315 0.0260276,-0.0107165 0.0054685,-0.00984252 0.00284252,-0.0220906 -0.00612598,-0.0288701z"/>
    <path id="_401410832" class="fil1 str1" d="M5.51334 2.89742c-0.0448386,-0.0282126 -0.0896772,-0.0559921 -0.134953,-0.0835512 -0.0844252,-0.0511811 -0.169728,-0.101047 -0.255906,-0.149606 -0.013122,-0.007 -0.0293071,-0.00568504 -0.0411181,0.0035 -0.0181535,0.014 -0.020122,0.0406811 -0.00415748,0.0570866 0.033685,0.026248 0.0686811,0.0503071 0.105205,0.0723976 0.0715236,0.0433071 0.145453,0.0839882 0.226378,0.104331l0.104551 -0.00415748z"/>
    <path id="_401409800" class="fil1 str1" d="M5.26334 2.5958c0.00962205,0.00525197 0.014874,0.0159685 0.013122,0.026685 -0.00218504,0.013563 -0.0144331,0.023185 -0.0279961,0.021874 -0.0485551,-0.0054685 -0.0971142,-0.0120315 -0.145449,-0.0194685 -0.126421,-0.0194646 -0.250878,-0.0489921 -0.375984,-0.0754567 -0.0511811,-0.0107205 -0.102146,-0.0234055 -0.15398,-0.0295276 -0.0251535,-0.00284646 -0.0509646,-0.00240945 -0.0741496,-0.0120315 -0.0146535,-0.00612598 -0.0295276,-0.0124685 -0.0398071,-0.0242795 -0.0111535,-0.012685 -0.0179331,-0.0288701 -0.0190276,-0.0457126 0.0100591,-0.00393701 0.0203386,-0.00634252 0.0310591,-0.00721654 0.0207756,-0.00175197 0.0415551,0.00218504 0.0621142,0.0050315 0.036311,0.00524803 0.0726181,0.0104961 0.108709,0.0170591 0.106516,0.0194646 0.210846,0.0485551 0.317146,0.0691181 0.0763346,0.0146535 0.15398,0.0238386 0.228346,0.0463661 0.025811,0.00787402 0.0511811,0.017063 0.0758976,0.0275591z"/>
    <path id="_401409992" class="fil1 str1" d="M4.54046 2.4042c-0.017937,-0.007 -0.0360906,-0.012689 -0.0546811,-0.0172795 -0.0199055,-0.00481102 -0.0395906,-0.010937 -0.0599291,-0.0105l-0.415138 0.0105c-0.0240591,0.000653543 -0.0478976,0.00524803 -0.0717402,0.00962205 -0.0185906,0.0035 -0.0369646,0.00765748 -0.0553386,0.0124685 -0.00481102,-0.00306299 -0.00896457,-0.00721654 -0.0113701,-0.0124685 -0.00809449,-0.016622 0.000874016,-0.0365276 0.0185906,-0.0415551 0.0358701,-0.00984252 0.0723976,-0.0177165 0.109142,-0.0238425 0.0658346,-0.0107165 0.132984,-0.013122 0.199693,-0.0159646 0.0614606,-0.00262598 0.122921,-0.00437795 0.184386,-0.00459449 0.0446181,-0.000220472 0.0892362,-0.00109449 0.133201,0.00590551 0.0185906,0.00284252 0.0382756,0.0035 0.0544606,0.012685 0.010063,0.00568898 0.020122,0.0120315 0.026248,0.0216535 0.00568504,0.0089685 0.0100591,0.019248 0.00831102,0.0295276 -0.00174803,0.010063 -0.00831102,0.0185906 -0.016622,0.0244961 -0.014874,0.0105 -0.0347795,0.0102795 -0.0492126,-0.000653543z"/>
    <path id="_401410112" class="fil1 str1" d="M4.5619 2.53871l0.0538071 0.020122c-0.00131102,0.018811 -0.0085315,0.0369646 -0.0205591,0.051622 -0.0111575,0.0137795 -0.026248,0.0238386 -0.0430906,0.0293071l-0.603236 -0.00240551c-0.0225276,0.000874016 -0.0448386,-0.007 -0.0592756,-0.0240591 -0.012685,-0.0150945 -0.0183701,-0.0349961 -0.0153071,-0.0546811l0.618764 0.00656299c0.0150945,0.000216535 0.030622,0.000653543 0.0439646,-0.00590551 0.00984252,-0.00481496 0.018374,-0.011811 0.0249331,-0.020563z"/>
    <path id="_401409632" class="fil1 str1" d="M4.05534 2.43417c-0.0369646,-0.000220472 -0.0737126,0.0015315 -0.110457,0.0054685 -0.0588346,0.00612205 -0.116579,0.020122 -0.17476,0.0317126 -0.0877087,0.0175 -0.176071,0.0310591 -0.263559,0.0487756 -0.0487756,0.00984252 -0.0971142,0.022748 -0.146106,0.0314961 -0.028,0.0050315 -0.0564331,0.0085315 -0.0826772,0.0190276 -0.0111575,0.00459449 -0.023622,0.00787402 -0.0308425,0.0172795 -0.00677953,0.0089685 -0.0100591,0.020122 -0.0089685,0.0312795 0.0207795,0.00240551 0.0415591,0.00306299 0.0623386,0.00240551 0.0492126,-0.00175197 0.0977677,-0.0129055 0.146106,-0.0225276 0.0813661,-0.016185 0.162512,-0.0347795 0.244311,-0.0485591 0.0971142,-0.016185 0.194882,-0.0304016 0.28937,-0.0577402 0.0212165,-0.00612598 0.0450591,-0.00743701 0.0592756,-0.023622 0.00874803,-0.00984252 0.0142165,-0.0220906 0.0159685,-0.0349961z"/>
    <path id="_401410064" class="fil1 str1" d="M3.38276 2.65661c-0.0857402,0.0398071 -0.171476,0.0798346 -0.25678,0.120295 -0.0374016,0.0177165 -0.0765512,0.0317165 -0.111547,0.0533701 -0.0238425,0.014874 -0.0463701,0.0319331 -0.0671496,0.0509606l0.10302 0c0.0476811,-0.0164016 0.0907677,-0.0443976 0.136264,-0.0662717 0.0763346,-0.0367441 0.153106,-0.0732717 0.229878,-0.109142 0.0115906,-0.007 0.0168425,-0.021 0.013122,-0.0339016 -0.00590551,-0.020122 -0.030185,-0.0279961 -0.0468071,-0.015311z"/>
    <path id="_401410016" class="fil1 str1" d="M3.35608 2.5304c0.013126,0.000220472 0.0245,-0.00940551 0.026248,-0.0225276 0.0019685,-0.014 -0.00765354,-0.026685 -0.0214331,-0.0290906 -0.028437,-0.00590551 -0.0573071,-0.0085315 -0.0863976,-0.00765354 -0.0457126,0.0015315 -0.0901142,0.0146535 -0.133421,0.0301811l-0.334425 0.119862c-0.0343386,0.012248 -0.0686811,0.0253701 -0.0986457,0.0457126 -0.0214331,0.0146535 -0.0433071,0.030185 -0.0522717,0.0540236 -0.00765748,0.0203425 -0.00787402,0.0428701 -0.00065748,0.0634291 0.015311,0.00175197 0.0308386,-0.000874016 0.0446181,-0.00765354 0.0279961,-0.0137795 0.0457126,-0.0426535 0.0713031,-0.0605866 0.0203425,-0.0142165 0.0430906,-0.0240591 0.0653976,-0.0349961 0.0728346,-0.0354331 0.150701,-0.0586181 0.227035,-0.0861772 0.0645236,-0.023185 0.128173,-0.0509606 0.195756,-0.0610236 0.0321535,-0.00481102 0.0645236,-0.00590551 0.0968937,-0.0035z"/>
    <path id="_401410040" class="fil1 str1" d="M2.84427 2.77384c-0.0144331,-0.00437795 -0.0297441,-0.00525197 -0.0446181,-0.00240945 -0.0177165,0.0035 -0.0317126,0.017937 -0.0494291,0.0216535 -0.0172795,0.00372047 -0.036311,-0.00590551 -0.0531496,-0.000216535 -0.016626,0.0054685 -0.0308425,0.0164055 -0.040685,0.0308386 0.0107165,0.018811 0.0277795,0.033248 0.0481181,0.0409016 0.0220945,0.00809449 0.0461535,0.00634252 0.0684606,-0.0015315 0.0199055,-0.007 0.0356535,-0.0216535 0.0503071,-0.0369646 0.00984252,-0.0102795 0.0225276,-0.0194646 0.0238425,-0.0332441 0.000653543,-0.00656299 -0.000220472,-0.013122 -0.00284646,-0.0190276z"/>
    <path id="_401409896" class="fil1 str1" d="M1.48359 3.99278c-0.00699606,0.0220906 -0.015748,0.0435236 -0.0262441,0.0640827 -0.00940551,0.018811 -0.0245,0.0345591 -0.033248,0.0538071 -0.00415354,0.00918504 -0.00590551,0.0190276 -0.00524803,0.0290906 0.0139961,0.00174803 0.0284331,0 0.0415551,-0.00524803 0.021437,-0.0085315 0.036748,-0.0269055 0.0474646,-0.0474646 0.00940551,-0.018374 0.014,-0.0389331 0.011811,-0.0592717 -0.000874016,-0.00787402 -0.000874016,-0.016189 -0.00524803,-0.0225315 -0.007,-0.00984252 -0.0190315,-0.0146535 -0.0308425,-0.0124646z"/>
    <path id="_401411096" class="fil1 str1" d="M1.41995 3.93526c-0.013563,0.00765354 -0.026248,0.016622 -0.0380591,0.0266811 -0.0290906,0.0247165 -0.0522756,0.0551181 -0.0730551,0.0870512 -0.016185,0.024937 -0.0288701,0.0518386 -0.0422126,0.0783031 -0.0304016,0.0608071 -0.0566496,0.123362 -0.0835512,0.185697 -0.019248,0.0446181 -0.0413386,0.0883622 -0.0511811,0.135827 -0.0102795,0.0494331 -0.012685,0.0999567 -0.00721654,0.150043 0.00393701,0.0102795 0.0135591,0.0175 0.0244961,0.018374 0.012248,0.00109449 0.0240591,-0.00568898 0.0290906,-0.017063 -0.00218898,-0.0483346 0.00240551,-0.0966732 0.013122,-0.143701 0.0102795,-0.0450551 0.0310591,-0.0868307 0.0485551,-0.129701 0.029311,-0.0721772 0.0566496,-0.145669 0.0999567,-0.210193 0.0334646,-0.0498701 0.0730551,-0.0949252 0.11811,-0.134516 0.00984252,-0.0113701 0.00984252,-0.0284331 0,-0.0398071 -0.00940551,-0.0111535 -0.0253701,-0.0139961 -0.0380551,-0.00699606z"/>
    <path id="_401411312" class="fil1 str1" d="M1.33005 4.60455c0.0172795,-0.0614646 0.0584016,-0.113299 0.0842087,-0.171917 0.022748,-0.0516181 0.0435276,-0.104114 0.0625551,-0.157264 0.00809449,-0.00787402 0.018811,-0.0124646 0.030185,-0.0129016 0.0164016,-0.00065748 0.0323701,0.00699606 0.0404646,0.0212165 0.00765354,0.0133386 0.00765354,0.0295276 0,0.0428661 -0.0225315,0.0426535 -0.0459331,0.0846457 -0.0702126,0.126205 -0.0349961,0.0597126 -0.0638661,0.123795 -0.108705,0.176291 -0.012248,0.0144331 -0.026685,0.027122 -0.0426496,0.0374016l0.00415354 -0.0618976z"/>
    <path id="_401411288" class="fil1 str1" d="M1.24563 4.49825c-0.0260276,0.0837677 -0.0494331,0.168413 -0.0699921,0.253717 -0.0174961,0.0728346 -0.0325906,0.146106 -0.0463701,0.219598 -0.0124646,0.0669291 -0.023622,0.134295 -0.0332441,0.201661 -0.00634252,0.0142165 0.0015315,0.030622 0.016622,0.0343386 0.0159685,0.00393701 0.0314961,-0.00852756 0.0308386,-0.0249331 0.029311,-0.139106 0.0592756,-0.27778 0.0903346,-0.416449 0.0181535,-0.0813661 0.0365276,-0.162512 0.0553346,-0.243657 0.00831496,-0.0139961 0.00131496,-0.0321496 -0.0142165,-0.0367441 -0.0115906,-0.0035 -0.0238386,0.00174803 -0.0293071,0.0124685z"/>
    <path id="_403374024" class="fil1 str1" d="M1.06343 5.06387c-0.00874803,0.021 -0.015748,0.0428701 -0.0205591,0.0651811 -0.00612598,0.0286535 -0.00831102,0.0577402 -0.00831102,0.0870512l-0.000437008 0.460846c0,0.0168425 0.000874016,0.0339055 0.00459055,0.0503071 0.00415748,0.018374 0.018374,0.034122 0.0185945,0.0529331 0.000216535,0.0135591 0.000437008,0.0286496 -0.0102835,0.0354331 -0.0100591,0.00655906 -0.0231811,0.00568504 -0.0325866,-0.00175197 -0.017063,-0.0194646 -0.0304055,-0.0422126 -0.0391535,-0.0667087 -0.0102795,-0.028874 -0.011811,-0.0599291 -0.0107165,-0.0905512l0.0159685 -0.491472c0.00109055,-0.0308386 0.011811,-0.0603661 0.0220906,-0.0894567 0.00393701,-0.010937 0.00809055,-0.0216535 0.0129016,-0.0323701 0.0054685,-0.00918504 0.015748,-0.0142165 0.026248,-0.012685 0.015748,0.00218504 0.0260276,0.0179331 0.0216535,0.0332441z"/>
    <path id="_403373640" class="fil1 str1" d="M1.21282 5.17192c-0.00656299,-0.013563 -0.00678346,-0.0295276 -0.00065748,-0.0433071 0.0054685,-0.012689 0.0142165,-0.0242795 0.0273386,-0.027122 0.011811,-0.00240551 0.023622,0.00284252 0.033248,0.0104961 0.0120276,0.00962598 0.0183701,0.024937 0.0179331,0.0404646l0.00415748 0.593394c0.00240551,0.0181575 -0.0120315,0.034122 -0.0304016,0.0339055 -0.0199055,-0.000440945 -0.0339016,-0.0194685 -0.028437,-0.0384961l0.0035 -0.502189c0,-0.0124646 -0.00240551,-0.0247165 -0.00699606,-0.0363071 -0.00459449,-0.011374 -0.0111575,-0.021874 -0.019685,-0.0308386z"/>
    <path id="_403373976" class="fil1 str1" d="M1.1098 5.63626c-0.00218898,0.011811 -0.00372047,0.0238425 -0.00481102,0.0358701 -0.00175197,0.018374 -0.00218898,0.036748 -0.00131496,0.0551181 0.0220906,0.115488 0.0459331,0.230752 0.0719606,0.345362 0.0172795,0.0765551 0.029748,0.154201 0.0551181,0.228346 0.010937,0.0321535 0.0242795,0.0636496 0.0393701,0.0942717 0.00175197,0.00656299 0.00809449,0.010937 0.014874,0.0100591 0.00590551,-0.000653543 0.0105,-0.00502756 0.011811,-0.0107165 -0.0175,-0.11089 -0.0378386,-0.221567 -0.0605866,-0.331583 -0.029748,-0.143043 -0.0636496,-0.285213 -0.102142,-0.426291 -0.000877953,-0.0054685 -0.00525197,-0.00962205 -0.0107205,-0.0102795 -0.00634252,-0.00065748 -0.012248,0.0035 -0.0135591,0.00984252z"/>
    <path id="_403374120" class="fil1 str1" d="M1.17979 6.30556c0.00831102,0.0745866 0.0229646,0.148512 0.0441811,0.220472 0.0282165,0.0960197 0.0656181,0.189197 0.116358,0.275374 0.0382795,0.0651772 0.0833346,0.126201 0.134299,0.181976 -0.024937,0.00306299 -0.0500906,-0.00065748 -0.0730551,-0.0107165 -0.023185,-0.0102835 -0.0402441,-0.0299685 -0.0581811,-0.048122 -0.0457126,-0.0463661 -0.0684606,-0.109799 -0.0955827,-0.169508 -0.0349921,-0.0765551 -0.0623346,-0.156386 -0.0890197,-0.23622 -0.020122,-0.0601496 -0.0426496,-0.120736 -0.0422126,-0.183728 0.000220472,-0.0199016 0,-0.0426496 0.016622,-0.0511811 0.0111575,-0.00568504 0.0245,-0.007 0.0343425,0 0.00699606,0.0050315 0.0115906,0.0129055 0.012248,0.0216535z"/>
    <path id="_403373952" class="fil1 str1" d="M1.30665 6.26312c0.0365276,0.0494331 0.0695551,0.101272 0.0988622,0.155075 0.0382756,0.0699921 0.0702087,0.143264 0.0955827,0.218941 0.00481102,0.012689 0.0164016,0.021437 0.0297441,0.0225315 0.0251535,0.0019685 0.0439646,-0.022311 0.0356535,-0.0461535 -0.00940551,-0.0244961 -0.019248,-0.0485551 -0.029748,-0.0726142 -0.0365236,-0.0828976 -0.0680197,-0.168854 -0.118764,-0.243657 -0.0150945,-0.022311 -0.032374,-0.0433071 -0.0511811,-0.0625551 -0.00831102,-0.018374 -0.0308425,-0.0253701 -0.0479016,-0.0146535 -0.0146535,0.0089685 -0.0199055,0.0277756 -0.012248,0.0430866z"/>
    <path id="_403373928" class="fil1 str1" d="M1.4346 6.78959c0.00262598,0.0295276 0.00940551,0.0583976 0.020122,0.0859567 0.0107165,0.0275591 0.0251535,0.0535866 0.0428701,0.0772087 0.0100591,0.014 0.0277756,0.0203425 0.0444016,0.015311 0.0183701,-0.0054685 0.0301811,-0.0229646 0.0286496,-0.0419961 -0.00896457,-0.0334646 -0.0264646,-0.0636457 -0.0511811,-0.0879252 -0.023622,-0.023185 -0.0529291,-0.0400276 -0.0848622,-0.0485551z"/>
    <path id="_403377648" class="fil1 str1" d="M2.54571 7.93767c-0.0139961,-0.0105 -0.0336811,-0.0085315 -0.0452756,0.00459055 -0.013122,0.014874 -0.0102795,0.0378386 0.00590551,0.0492126 0.0509646,0.0354331 0.10302,0.0691181 0.156386,0.100831 0.0610236,0.036311 0.123799,0.0699921 0.187665,0.100835 0.0133425,0.00918504 0.0312756,0.00655906 0.0415591,-0.00590551 0.0107165,-0.013126 0.00896457,-0.032374 -0.00415748,-0.0433071 -0.0542441,-0.0349961 -0.109142,-0.0691181 -0.16448,-0.102583 -0.0586181,-0.0354331 -0.11789,-0.0699921 -0.177602,-0.103673z"/>
    <path id="_403376856" class="fil1 str1" d="M2.70669 8.15573c-0.0124685,-0.011374 -0.0317165,-0.0111575 -0.0439646,0.000437008 -0.0120276,0.011374 -0.0135591,0.0301811 -0.0035,0.0433071 0.029748,0.0290906 0.0623386,0.0551181 0.0968976,0.0783031 0.0761142,0.0507402 0.162071,0.0842047 0.248248,0.115701 0.0879252,0.0321535 0.176949,0.0616811 0.269685,0.0734921 0.027122,0.0035 0.0542441,0.011374 0.0807087,0.0054685 0.014,-0.00327953 0.0269016,-0.010063 0.037622,-0.019685 -0.0124685,-0.0102795 -0.026248,-0.0185906 -0.041122,-0.0249331 -0.0253701,-0.0107205 -0.0529291,-0.0146575 -0.0800512,-0.020563 -0.0461496,-0.0100591 -0.0905512,-0.0260276 -0.136047,-0.0387126 -0.0992992,-0.0275591 -0.199256,-0.0555551 -0.288276,-0.106736 -0.0509606,-0.0293071 -0.0982047,-0.0649606 -0.140201,-0.106079z"/>
    <path id="_403377288" class="fil1 str1" d="M3.43591 8.292c-0.0135591,0.0019685 -0.0273386,0.0019685 -0.0409016,0.000437008 -0.0216535,-0.00262598 -0.0424291,-0.00940551 -0.0612402,-0.020122 -0.0789606,-0.0424331 -0.159232,-0.0818031 -0.241252,-0.117894 -0.0962362,-0.0424331 -0.201661,-0.0645236 -0.293528,-0.115705 -0.0304016,-0.0168386 -0.0588346,-0.0371811 -0.0848622,-0.0605866 0.0365276,0.00328346 0.0728346,0.0085315 0.108705,0.0155315 0.0413386,0.00809055 0.0822402,0.018811 0.122484,0.0312756 0.0719606,0.022311 0.139327,0.0568701 0.209098,0.0855236 0.0791772,0.0325866 0.160543,0.0632087 0.227472,0.116142 0.0225276,0.0177165 0.0409016,0.0400236 0.0540236,0.0653976z"/>
    <path id="_403376736" class="fil1 str1" d="M3.25853 8.30993c-0.00940551,-0.00459055 -0.021,-0.000653543 -0.0255906,0.00874803 -0.0054685,0.0111575 0.000874016,0.0247165 0.013122,0.0273425 0.118331,0.0323701 0.237752,0.0603661 0.358047,0.0837717 0.149169,0.0290906 0.299654,0.0511811 0.451008,0.0662717 0.00590551,0.00109449 0.011811,-0.00240551 0.0135591,-0.00831102 0.00109449,-0.00393701 0.000220472,-0.00809449 -0.00240551,-0.0111535 -0.116795,-0.028 -0.234031,-0.0542441 -0.351705,-0.0789606 -0.151575,-0.0319331 -0.303587,-0.0610236 -0.456035,-0.0877087z"/>
    <path id="_403376352" class="fil1 str1" d="M3.95757 8.39676c-0.0120276,0.00371654 -0.0249331,-0.000874016 -0.0321496,-0.0111575 -0.013126,-0.0190276 0.000216535,-0.0450551 0.0234016,-0.0452756 0.100394,-0.00371654 0.200787,-0.00677953 0.301181,-0.00874803 0.111547,-0.00218504 0.222878,-0.0035 0.334425,-0.0035 0.011811,-0.00109055 0.023185,0.00525197 0.0286535,0.0159685 0.00874803,0.0172795 -0.00655906,0.0358701 -0.0262441,0.0426496 -0.010937,0.00372047 -0.0225315,-0.0019685 -0.034122,-0.00415354 -0.00787402,-0.0015315 -0.0159685,-0.00109449 -0.0238425,-0.00175197 -0.0826772,-0.00612205 -0.165571,-0.00721654 -0.248469,-0.00590551 -0.107831,0.00175197 -0.215661,0.0089685 -0.322835,0.021874z"/>
    <path id="_403376112" class="fil1 str1" d="M3.86724 8.52996c0.0651772,0.0199055 0.131669,0.0349961 0.199035,0.0450591 0.127953,0.0192441 0.257874,0.0220906 0.386047,0.00481102 0.0658346,-0.00874803 0.131016,-0.022748 0.194661,-0.0415591 -0.0142165,0.0314961 -0.0367441,0.0586181 -0.0651772,0.0783031 -0.037622,0.0260276 -0.0855197,0.030185 -0.130795,0.0398071 -0.104114,0.022311 -0.211508,0.015748 -0.317587,0.00415748 -0.0557756,-0.00612598 -0.112205,-0.0107165 -0.165575,-0.0282165 -0.0203386,-0.00677953 -0.0422126,-0.0107165 -0.0586181,-0.0242795 -0.023622,-0.0194646 -0.0387126,-0.0476811 -0.0419921,-0.0780827z"/>
    <path id="_403375824" class="fil1 str1" d="M4.49781 8.44685c-0.00809055,0.00262598 -0.0139961,0.00984252 -0.0148701,0.018374 -0.00109449,0.0107165 0.00612205,0.0207756 0.016622,0.023185 0.14698,-0.00875197 0.29287,-0.029311 0.436571,-0.0612441 0.105205,-0.0234016 0.208878,-0.0529291 0.310587,-0.0883622 0.00852756,-0.00415748 0.0133425,-0.0133425 0.011811,-0.0225315 -0.0015315,-0.0100591 -0.010063,-0.0174961 -0.020122,-0.0179331 -0.129484,0.0282126 -0.259189,0.0553346 -0.38911,0.0813622 -0.117016,0.0234055 -0.234252,0.0457165 -0.351488,0.0671496z"/>
    <path id="_403375392" class="fil1 str1" d="M5.10061 8.26969c0.0144331,-0.0209961 0.0317126,-0.0400276 0.0513976,-0.0562126 0.0395906,-0.0325906 0.0868346,-0.0535866 0.133201,-0.0758976 0.0684606,-0.0328071 0.13889,-0.0610236 0.210413,-0.0863937 0.0465866,-0.0164055 0.0931772,-0.0343386 0.141732,-0.0433071 0.0367441,-0.00677953 0.0739291,-0.010063 0.11111,-0.00984252 0.00524803,0.000437008 0.00984252,0.0035 0.012248,0.00809449 0.00262598,0.00502756 0.00240551,0.0111535 -0.000653543,0.0159646 -0.0435276,0.0194685 -0.0874921,0.0378386 -0.13211,0.0551181 -0.0669291,0.025811 -0.136921,0.0439646 -0.20363,0.0706496 -0.0772087,0.0308386 -0.150264,0.0723937 -0.229441,0.0977677 -0.0308386,0.00984252 -0.0623346,0.0179331 -0.0942677,0.0240591z"/>
    <path id="_403375872" class="fil1 str1" d="M5.14851 8.4217c-0.00940551,-0.00109449 -0.0183701,0.00372047 -0.0223071,0.012248 -0.00656299,0.0137795 0.00284252,0.0299646 0.0181535,0.0310591 0.0179331,0.00240551 0.0358701,0.0035 0.0540236,0.00372047 0.0413386,0.000437008 0.0826772,-0.00568898 0.123358,-0.0133425 0.0774291,-0.0146575 0.149827,-0.0479016 0.223315,-0.0767717 0.0916457,-0.0358701 0.184602,-0.0704291 0.264,-0.128173 0.0205591,-0.014874 0.0393701,-0.0323701 0.0557756,-0.0516181 0.00699606,-0.011811 0.00655906,-0.026685 -0.00109449,-0.0380591 -0.0120315,-0.0181535 -0.037185,-0.0214331 -0.0535866,-0.00699606 -0.0264646,0.0319331 -0.0577441,0.0597087 -0.0925197,0.0824567 -0.0358701,0.0234016 -0.0774291,0.0367441 -0.117016,0.0533701 -0.0916457,0.0382756 -0.183512,0.0772087 -0.279969,0.101268 -0.0566457,0.0139961 -0.114173,0.0244961 -0.172134,0.0308386z"/>
    <path id="_403374576" class="fil1 str1" d="M5.66513 8.17367c0.014874,-0.022748 0.0325906,-0.0439646 0.0522756,-0.0627717 0.0334646,-0.0319331 0.0732717,-0.0559961 0.112862,-0.0802717 0.0345591,-0.0212165 0.0693346,-0.0422126 0.103894,-0.0638661 0.0139961,-0.00875197 0.0282126,-0.0177165 0.0422126,-0.026685 0.012248,-0.0175 0.0380591,-0.0181535 0.0511811,-0.00131496 0.00634252,0.00831496 0.00831102,0.0190315 0.00524803,0.0290906 -0.0533661,0.0358701 -0.107173,0.0715236 -0.16098,0.106736 -0.0389291,0.0255906 -0.0745827,0.0568701 -0.117016,0.0754606 -0.0284331,0.0124685 -0.0588346,0.0203425 -0.0896772,0.023622z"/>
    <path id="_403374744" class="fil1 str1" d="M7.03806 6.82327c-0.0105,0.00437402 -0.020122,0.0107165 -0.028437,0.018374 -0.0216535,0.020122 -0.0319331,0.0492126 -0.0308386,0.0789567 0.000437008,0.0142165 0.00393701,0.028437 0.010063,0.0413386 0.0199016,-0.0104961 0.0360866,-0.0266811 0.0463661,-0.0468071 0.0146575,-0.0286496 0.0155315,-0.0623346 0.00284646,-0.0918622z"/>
    <path id="_403375056" class="fil1 str1" d="M7.04353 6.95844c0.0317126,-0.0371811 0.0603661,-0.0765512 0.0861732,-0.11811 0.0308425,-0.0498661 0.0557756,-0.103016 0.0791811,-0.156823 0.0216535,-0.0496496 0.0406811,-0.100173 0.0573031,-0.151575 0.0102795,-0.0319331 0.0207795,-0.0640866 0.0240591,-0.0975512 0.00065748,-0.00765354 -0.00131102,-0.0150906 -0.000653543,-0.0227441 0.000653543,-0.00875197 0.000653543,-0.0181575 0.00524803,-0.0255906 0.00590551,-0.00984252 0.014874,-0.0181575 0.0260276,-0.018374 0.012685,-0.000220472 0.0216535,0.011374 0.0279961,0.023185 0.00568898,0.0104961 0.00524803,0.023185 0.00415748,0.0352126 -0.00175197,0.019248 -0.00743701,0.0378386 -0.0124685,0.0566496 -0.0229646,0.0857402 -0.0559921,0.168417 -0.0914252,0.249783 -0.0279961,0.0647402 -0.0549016,0.130575 -0.0962402,0.187445 -0.0218701,0.0301811 -0.0476811,0.0573031 -0.0767717,0.0807087 -0.00831102,0.00481102 -0.0183701,0.00481102 -0.0266811,0 -0.015311,-0.00875197 -0.0181575,-0.0295276 -0.00590551,-0.0422165z"/>
    <path id="_398421488" class="fil1 str1" d="M7.01706 6.59252c-0.00677953,0.0105 -0.0209961,0.0135591 -0.0314961,0.00677953 -0.00984252,-0.00634252 -0.013122,-0.019248 -0.00765354,-0.0297441 0.0212165,-0.0579646 0.0461496,-0.114394 0.0748031,-0.169075 0.0139961,-0.026685 0.027122,-0.0544606 0.0470236,-0.0769882 0.013126,-0.014874 0.0286535,-0.0273425 0.0461535,-0.036748 0.00174803,0.0212165 -0.000440945,0.0424331 -0.00656299,0.0627756 -0.013122,0.0439606 -0.0378386,0.0835512 -0.0586181,0.124669 -0.020122,0.0400276 -0.0413386,0.0793976 -0.0636496,0.118331z"/>
    <path id="_398421512" class="fil1 str1" d="M7.20713 6.38954c0.0115945,-0.0909882 0.0251535,-0.181756 0.0404646,-0.272091 0.0229646,-0.13539 0.0500866,-0.269902 0.0813661,-0.403543 0.00371654,-0.00918504 0.013122,-0.0150906 0.0231811,-0.0142165 0.0120315,0.000874016 0.0212165,0.0111575 0.0212165,0.023185 -0.0155276,0.116799 -0.0341181,0.233378 -0.0557717,0.349299 -0.0207795,0.111331 -0.0444016,0.222004 -0.0706496,0.33224 -0.0050315,0.011374 -0.018811,0.016185 -0.0297441,0.010063 -0.00875197,-0.00481102 -0.013126,-0.015311 -0.010063,-0.024937z"/>
    <path id="_398420936" class="fil1 str1" d="M7.25656 5.83596c-0.000437008,0.00612598 -0.00372047,0.0115945 -0.00875197,0.014874 -0.00677953,0.00437402 -0.0153071,0.00437402 -0.0220906,0 -0.0249331,-0.10761 -0.0400236,-0.217193 -0.0450551,-0.327646 -0.0050315,-0.112642 0.000216535,-0.225504 0.0159646,-0.337051 0.00415748,-0.0089685 0.012689,-0.015311 0.0225315,-0.016622 0.015748,-0.0019685 0.0301811,0.00918504 0.0321496,0.0249331 -0.0054685,0.11111 -0.00765354,0.22222 -0.00655906,0.333551 0.00109055,0.102799 0.00502756,0.205382 0.011811,0.307961z"/>
    <path id="_398420864" class="fil1 str1" d="M7.42279 5.8178c0.0115906,-0.0441811 0.0203425,-0.0892362 0.026685,-0.134512 0.011811,-0.0853031 0.011374,-0.171701 0.0107165,-0.257874 -0.00065748,-0.0691181 -0.0019685,-0.138673 -0.0172795,-0.205819 -0.00459449,-0.0203425 -0.0205591,-0.037185 -0.0249331,-0.0575236 -0.00393701,-0.018374 -0.00393701,-0.0374016 0,-0.0557756 0.0216535,0.00656299 0.0411181,0.0185906 0.0564291,0.0349961 0.0295276,0.0314961 0.0371811,0.0765512 0.0470236,0.119205 0.010063,0.0441811 0.00831496,0.0901142 0.00984252,0.135606 0.00306299,0.0968937 0.00284646,0.194008 -0.0104961,0.290028 -0.0054685,0.0393701 -0.010063,0.0791772 -0.023185,0.116795 -0.00656299,0.0185945 -0.012248,0.0380591 -0.026685,0.0511811 -0.0133425,0.0120315 -0.030185,0.0194685 -0.0481181,0.0207795 -0.00218898,-0.00721654 -0.00372047,-0.0146535 -0.00415748,-0.0220906 -0.000874016,-0.011811 0.00065748,-0.023622 0.00415748,-0.0349961z"/>
    <path id="_398420768" class="fil1 str1" d="M7.33793 5.25219c0.0035,0.00852756 0.0124685,0.0135591 0.021437,0.0120276 0.011374,-0.00174803 0.018811,-0.013122 0.0159646,-0.0242795 -0.0100591,-0.0857362 -0.0234016,-0.171039 -0.0398071,-0.255685 -0.030622,-0.158575 -0.0721772,-0.314961 -0.124016,-0.468067 -0.00371654,-0.00765354 -0.012685,-0.010937 -0.0203386,-0.00765354 -0.00678346,0.00284252 -0.0105,0.00984252 -0.00940551,0.0170591 0.015311,0.123795 0.0360866,0.246937 0.0623346,0.368984 0.0260276,0.120516 0.0573071,0.239941 0.0938307,0.357614z"/>
    <path id="_398421464" class="fil1 str1" d="M7.3049 4.59361c-0.00109055,-0.0330276 -0.00984252,-0.0653976 -0.0172756,-0.0977717 -0.0137795,-0.0594921 -0.032811,-0.117669 -0.0546811,-0.174756 -0.0312795,-0.0811496 -0.0695551,-0.159449 -0.11702,-0.232283 -0.0262441,-0.040248 -0.0548976,-0.0785236 -0.0861732,-0.115051 -0.012689,-0.0135591 -0.00940551,-0.0356496 0.00655906,-0.0450551 0.013126,-0.00765748 0.0299646,-0.00415748 0.0387165,0.00831102 0.0535866,0.0625551 0.101268,0.130142 0.141949,0.201661 0.0544606,0.0955827 0.0931772,0.199039 0.125984,0.304244 0.013563,0.0433071 0.029311,0.0861772 0.0314961,0.131232 0.00109449,0.025811 0.00459449,0.0553386 -0.016185,0.0675866 -0.0142165,0.00831102 -0.0321535,0.0129055 -0.0439646,0.00240551 -0.00459055,-0.00415354 -0.00743701,-0.00962205 -0.00962205,-0.0155276 -0.00393701,-0.010937 0.00065748,-0.023185 0.000216535,-0.0349961z"/>
    <path id="_398421224" class="fil1 str1" d="M6.99038 4.01181c-0.012689,0.011811 -0.020563,0.0282165 -0.021437,0.0457126 -0.00131102,0.0225276 0.0054685,0.0459331 0.0249331,0.0562126 0.0137795,0.00721654 0.030185,0.012248 0.041122,0.00240551 0.00524803,-0.00459449 0.00765354,-0.0115906 0.00940551,-0.018374 0.00437402,-0.0170591 -0.00634252,-0.0336811 -0.0159685,-0.0492126 -0.00940551,-0.0150906 -0.0225276,-0.0277756 -0.0380551,-0.0367441z"/>
    <path id="_398422304" class="fil1 str1" d="M7.13648 4.61986c0.00284252,0.00918898 0.000437008,0.0190315 -0.00590551,0.0260315 -0.0111575,0.012248 -0.0304055,0.0115906 -0.0409016,-0.00109449 -0.019685,-0.0295276 -0.0374016,-0.0605866 -0.0529331,-0.0925197 -0.0255906,-0.0529331 -0.0450551,-0.108705 -0.0581772,-0.166012 -0.00218898,-0.0111535 0.00240551,-0.0225276 0.011811,-0.0290906 0.0139961,-0.00962205 0.0332441,-0.00524803 0.0415551,0.00962598 0.0085315,0.0279961 0.0177165,0.0555551 0.0279961,0.0828937 0.0216535,0.0584016 0.0472441,0.115268 0.0765551,0.170165z"/>
   </g>
  </g>
  <path class="fil2 str2" d="M4.27734 8.3458c-0.0481181,-0.164917 -0.168634,-0.299213 -0.327425,-0.364827 -0.110457,-0.0457126 -0.235567,-0.0255906 -0.35652,-0.0255906l-1.42935 0c-0.188539,0.0054685 -0.370516,-0.0723976 -0.489283,-0.218287 -0.0850827,-0.104547 -0.132764,-0.234906 -0.133201,-0.369642l0 -4.21631 -0.172354 -0.279965 5.75241 0 -0.172354 0.279965 0 4.21631c-0.000437008,0.134736 -0.0481181,0.265094 -0.133201,0.369642 -0.118768,0.14589 -0.300744,0.223756 -0.489283,0.218287l-1.36505 0c-0.120953,0 -0.246063,-0.020122 -0.35652,0.0255906 -0.158791,0.0656142 -0.279528,0.199909 -0.327866,0.364827z"/>
  <path class="fil0 str0" d="M4.27734 8.3458c-0.0481181,-0.164917 -0.168634,-0.299213 -0.327425,-0.364827 -0.110457,-0.0457126 -0.235567,-0.0255906 -0.35652,-0.0255906l-1.42935 0c-0.188539,0.0054685 -0.370516,-0.0723976 -0.489283,-0.218287 -0.0850827,-0.104547 -0.132764,-0.234906 -0.133201,-0.369642l0 -4.21631 -0.172354 -0.279965 5.75241 0 -0.172354 0.279965 0 4.21631c-0.000437008,0.134736 -0.0481181,0.265094 -0.133201,0.369642 -0.118768,0.14589 -0.300744,0.223756 -0.489283,0.218287l-1.36505 0c-0.120953,0 -0.246063,-0.020122 -0.35652,0.0255906 -0.158791,0.0656142 -0.279528,0.199909 -0.327866,0.364827z"/>
  <path class="fil1 str1" d="M1.61461 5.20035l0 -2.07371 -0.110453 -0.180228 5.48119 0 -0.11111 0.18285 0 2.06321c0,0.00874803 0.00109055,0.0179331 -0.00328346,0.0253701 -0.0054685,0.00940551 -0.0150906,0.0155315 -0.0258071,0.016626l0 2.1378c0.000653543,0.0973307 -0.026685,0.19335 -0.0848661,0.270996 -0.0868307,0.115705 -0.227689,0.176071 -0.372705,0.169291l-1.26509 0c-0.0177165,0 -0.0358701,-0.000220472 -0.0507441,-0.00918504 -0.0135591,-0.00831496 -0.0242756,-0.0207795 -0.0299646,-0.0356535l-0.316929 0.00065748c-0.0468071,0 -0.0927362,0.0104961 -0.137358,0.0247126 -0.131669,0.0417795 -0.242343,0.132331 -0.309272,0.253063 -0.0487756,-0.0678031 -0.11002,-0.125984 -0.180228,-0.17126 -0.102799,-0.0662717 -0.22113,-0.106079 -0.343177,-0.106516l-0.310587 0c-0.00327953,0.0139961 -0.0115906,0.0262441 -0.0234016,0.0343386 -0.011811,0.00809055 -0.0264646,0.00962205 -0.0409016,0.00962205l-1.28193 0c-0.112862,0.0019685 -0.222441,-0.0398071 -0.300965,-0.120516 -0.0846457,-0.0870512 -0.111984,-0.212161 -0.108484,-0.334862l0 -2.08771c0,-0.021874 0.0185906,-0.0389331 0.0402441,-0.037622 0.018374,0.00109449 0.033248,0.0155315 0.0352165,0.0339016l0 2.17214c0.00131102,0.0780827 0.0343386,0.152012 0.0896732,0.207346 0.0538071,0.0538071 0.125331,0.0872717 0.201445,0.0894606l1.38867 0 0 -2.43417 1.6028 0 0 2.43438 1.3622 0c0.102583,0.0035 0.200787,-0.0430866 0.2605,-0.126642 0.0334646,-0.0468031 0.0551181,-0.101705 0.0559921,-0.159008l0 -2.229 0.0433071 0c0.012248,0 0.023622,-0.00568898 0.0308425,-0.0155315 0.00699606,-0.00962205 0.00524803,-0.0227441 0.00524803,-0.0349921l0 -2.04659 0.0636496 -0.111331 -5.25 0 0.0494291 0.0778661 0 2.10849c-0.00131102,0.00918504 -0.00721654,0.0168425 -0.0155276,0.0207795 -0.0155315,0.00721654 -0.033685,-0.00175197 -0.037622,-0.018374zm2.83399 1.48797c-0.0341181,-0.012248 -0.0693346,-0.0205591 -0.105421,-0.0244961 -0.0577441,-0.00634252 -0.116799,-0.00743701 -0.171917,0.0102795 -0.0419961,0.013563 -0.0879252,0.0247165 -0.112205,0.0603701 -0.0111535,0.0164016 -0.0190276,0.0347756 -0.0220906,0.0544606 -0.00175197,0.0111535 0.0054685,0.0238386 -0.00065748,0.0332441 -0.00874803,0.0133425 -0.026685,0.0155315 -0.0422126,0.0102795 -0.0170591,-0.00568504 -0.022748,-0.0258071 -0.0273386,-0.0441811 -0.00722047,-0.0299646 0.012248,-0.0583976 0.0290866,-0.0855197 0.022311,-0.0358701 0.0586181,-0.0597126 0.0962402,-0.0798346 0.115268,-0.0614606 0.260059,-0.0470236 0.379921,0.00590551 0.0172795,0.00656299 0.0253701,0.0264646 0.0174961,0.0433071 -0.00721654,0.015311 -0.0251535,0.0225276 -0.0409016,0.016185zm-0.740157 0.343835l0 -0.0999567c0,-0.0124685 0.00306299,-0.024937 0.00831496,-0.0363071 0.00437402,-0.00940551 0.0102795,-0.017937 0.0177165,-0.025374 0.0863937,-0.0802717 0.172134,-0.161417 0.257217,-0.24322 0.0579606,-0.0557717 0.115705,-0.111984 0.173008,-0.168634 0.0111575,-0.00874803 0.0159685,-0.023622 0.011811,-0.0371811 -0.00393701,-0.013126 -0.0150906,-0.022748 -0.0286496,-0.0245 -0.015748,0.00175197 -0.0314961,0.00065748 -0.0468071,-0.00327953 -0.0175,-0.00437402 -0.0343425,-0.011374 -0.048122,-0.022748 -0.0164016,-0.0133425 -0.0286496,-0.0310591 -0.0349921,-0.0511811 -0.00831496,-0.0269016 -0.013563,-0.0570866 0.00502756,-0.0765512 0.0146575,-0.015311 0.037185,-0.019248 0.0586181,-0.016185 0.0142165,0.0019685 0.0269055,0.00940551 0.0389331,0.0174961 0.016185,0.0111535 0.0240591,0.0328071 0.0415591,0.0419961 0.023622,0.0124646 0.0522717,0.00634252 0.0793937,0.00787402 0.0251535,0.00131102 0.0500906,0.0102795 0.0750236,0.00787402 0.0164055,-0.0015315 0.0332441,-0.00306299 0.0474606,-0.0111575 0.0212165,-0.0120276 0.0234055,-0.0439606 0.0422165,-0.0597087 0.0129016,-0.010937 0.0275591,-0.021 0.0441811,-0.020122 0.0234016,0.00131102 0.0395866,0.0218701 0.0487756,0.0441811 0.010937,0.026248 0.00306299,0.0557756 -0.0129055,0.0798346 -0.013122,0.0199016 -0.0356535,0.0306181 -0.0573071,0.0409016 -0.0253701,0.0120276 -0.0524921,0.0199016 -0.0804882,0.0234016 -0.00677953,0.00218898 -0.0120315,0.00743701 -0.014437,0.0142165 -0.00240551,0.007 -0.00109055,0.014874 0.00328346,0.0207795 0.0870512,0.0831142 0.174319,0.165791 0.261811,0.248469 0.0693346,0.0653976 0.138886,0.130795 0.208661,0.195976 0.00852756,0.00568504 0.015311,0.0135591 0.020122,0.0225276 0.00524803,0.00984252 0.00721654,0.0207795 0.00721654,0.0319331l0 0.0837717c0,0.0115906 -0.00065748,0.023622 -0.0085315,0.0317126 -0.00415354,0.00437795 -0.00962205,0.00743701 -0.0155276,0.0089685l-1.07152 0c-0.00852756,0.000220472 -0.0172795,-0.00218504 -0.023185,-0.00831102 -0.00459055,-0.00481102 -0.00765354,-0.010937 -0.00787402,-0.0174961zm0.282374 -0.670169c-0.00940551,-0.016622 -0.0207795,-0.0319331 -0.0339016,-0.0459291 -0.0142205,-0.0150945 -0.0299685,-0.0284331 -0.0474646,-0.0395906 -0.00677953,-0.0104961 -0.00809449,-0.0234016 -0.00393701,-0.0349961 0.00284252,-0.00765354 0.00787402,-0.0142165 0.014437,-0.0188071 0.0409016,-0.024063 0.0850827,-0.0419961 0.131232,-0.0527126 0.023622,-0.0054685 0.0481181,-0.0107205 0.0713031,-0.00437402 0.016622,0.00459055 0.0312795,0.0137795 0.0448386,0.0244961 0.0190276,0.0150906 0.027122,0.0413386 0.0468071,0.0553346 0.0319331,0.022311 0.0730512,0.028437 0.105642,0.00765748 0.0277795,-0.0175 0.0240591,-0.0664921 0.0520551,-0.0837717 0.017063,-0.0102795 0.036748,-0.014874 0.0566496,-0.016185 0.0343425,-0.00240551 0.0669291,0.012685 0.0973346,0.0293071 0.0380551,0.0207795 0.0826772,0.0398071 0.0903307,0.0804921 0.00240551,0.012248 0.0035,0.0249331 0,0.0369646 -0.00568504,0.0199016 -0.0308386,0.0277756 -0.0422126,0.0452756 -0.00962598,0.0146535 -0.0207795,0.0301811 -0.0175,0.0468071 0.0035,0.0172756 0.0177165,0.0297441 0.0343425,0.0363071l0.27887 0.135606c0.0133425,0.00590551 0.0282165,0.00634252 0.0422126,0.0019685 0.012248,-0.00393701 0.023185,-0.010937 0.0304016,-0.0214331l0.0384961 -0.0590551c0.00524803,-0.0102795 0.00590551,-0.0220906 0.007,-0.033685 0.00262598,-0.0262441 -0.00131102,-0.0529291 -0.0115945,-0.0772087 -0.0336811,-0.0828937 -0.0894567,-0.154854 -0.161197,-0.208441 -0.0979882,-0.0730551 -0.222661,-0.0949252 -0.345799,-0.0947087l-0.466319 0c-0.101925,0.00284252 -0.196193,0.0498701 -0.290902,0.0896772 -0.0428701,0.0179331 -0.0870512,0.0363071 -0.117016,0.0713031 -0.0247165,0.0290906 -0.0424331,0.0638661 -0.0457126,0.101705l0 0.159012c0.000874016,0.0314961 0.0174961,0.0601496 0.0444016,0.0765551 0.011374,0.00699606 0.0244961,0.0107165 0.0378386,0.0129016 0.0155276,0.00262598 0.0312756,0.00109449 0.0470236,-0.000874016 0.021437,-0.00262205 0.0419961,-0.0100591 0.0625551,-0.0172795 0.0459331,-0.0159646 0.0881457,-0.0409016 0.130795,-0.0643031 0.032811,-0.017937 0.0649606,-0.0371811 0.0962402,-0.0577441 0.0111535,-0.00699606 0.019685,-0.0172795 0.0244961,-0.0295276 0.00656299,-0.0164016 0.00590551,-0.0347756 -0.00174803,-0.0507441z"/>
  <path class="fil1 str1" d="M5.958 4.20582l-0.193567 -0.0194685 0.292213 -0.346457c0.00481102,-0.012685 0.0199016,-0.0177165 0.0312756,-0.0102795 0.00962598,0.00612598 0.0124685,0.018811 0.00656299,0.0286535 -0.0352126,0.0737087 -0.0629921,0.15048 -0.0831142,0.229657 -0.00831102,0.0330276 -0.015311,0.0662756 -0.0209961,0.0997402 0.000874016,0.00699606 -0.00218898,0.0137795 -0.00765748,0.0181535 -0.00656299,0.0050315 -0.0159646,0.000874016 -0.0247165,0zm-0.531059 -0.0675866c0.122268,-0.145886 0.250441,-0.286528 0.384516,-0.421697 0.119862,-0.120953 0.244315,-0.237315 0.372921,-0.349083 0.0275591,-0.0205591 0.0621181,-0.0293071 0.0962402,-0.0247126 0.0349961,0.00481102 0.0682402,0.0212126 0.0870512,0.0507402 0.0133425,0.021 0.0174961,0.0463701 0.0168425,0.0713071 -0.00393701,0.14698 -0.0229685,0.293307 -0.0465906,0.438535 -0.0500866,0.308402 -0.109799,0.615268 -0.17935,0.919949 -0.010937,0.0457126 -0.0433071,0.0835512 -0.0870512,0.101268 -0.034122,0.0137795 -0.0721811,0.0137795 -0.106736,0.00131496 -0.0728346,-0.0260276 -0.114614,-0.102362 -0.0973346,-0.177823l0.0518386 -0.237315c0.00240551,-0.0104961 0.00240551,-0.0216535 -0.00240551,-0.0312756 -0.00524803,-0.0107165 -0.0146535,-0.0185906 -0.0260276,-0.0220906l-0.352146 0c-0.0529291,0.0754567 -0.108921,0.148512 -0.16776,0.219378 -0.0546811,0.0658346 -0.111984,0.129264 -0.171476,0.190724 -0.0468071,0.0382795 -0.12161,0.0461535 -0.166449,0.00656299 -0.0220906,-0.0194646 -0.030622,-0.0494331 -0.033685,-0.0791772 -0.00305906,-0.029311 0.00765748,-0.0579606 0.0177165,-0.0859567 0.00568898,-0.016189 0.012248,-0.0321535 0.0199055,-0.047685 0.0319331,-0.0640827 0.0730512,-0.123138 0.122264,-0.175197 0.00590551,-0.00787402 0.00787402,-0.0179331 0.0050315,-0.0273386 -0.00218504,-0.00765354 -0.00721654,-0.0142165 -0.0142165,-0.0181535l-0.140421 0.00393701c-0.0183701,-0.000874016 -0.0356496,-0.00940551 -0.0478976,-0.0234055 -0.0190315,-0.0216535 -0.0133425,-0.0538031 -0.00656299,-0.0828937 0.00874803,-0.0374016 0.0358701,-0.0671496 0.0675866,-0.0896772 0.0299646,-0.0214331 0.0673661,-0.0286535 0.103894,-0.0349961 0.0522717,-0.00918504 0.105642,-0.00393701 0.158571,-0.00524803 0.0304055,-0.000874016 0.0621181,0.0015315 0.0883661,-0.0129055 0.0234016,-0.0129055 0.0419961,-0.0328071 0.0533661,-0.0570866zm-1.65901 -0.762028c0.00918504,-0.0142205 0.023622,-0.0242795 0.0402441,-0.0282165 0.0164016,-0.00372047 0.0336811,-0.00131102 0.0481181,0.00721654 0.0264646,0.017937 0.0485551,0.0413386 0.0649606,0.0686811 0.015748,0.0264646 0.027122,0.0557717 0.0290906,0.0863937 0.00109449,0.0170591 -0.000874016,0.034122 -0.00568898,0.0505236 -0.0802677,0.169949 -0.159228,0.340335 -0.237311,0.511374 -0.0573071,0.125547 -0.113957,0.251315 -0.170169,0.377516 -0.00568504,0.00765748 -0.00459055,0.018374 0.00262598,0.0247165 0.00940551,0.00809449 0.0238425,0.00481102 0.0286535,-0.00656299 0.0721772,-0.102142 0.145886,-0.203409 0.220909,-0.303587 0.154417,-0.206035 0.30315,-0.417323 0.477909,-0.606079 0.0524921,-0.0566496 0.106736,-0.111551 0.162949,-0.164701 0.0120276,-0.0124646 0.027122,-0.0218701 0.0435236,-0.0271181 0.023185,-0.00743701 0.0483386,-0.00722047 0.0708661,0.0019685 0.024937,0.0102795 0.0426535,0.0317126 0.0551181,0.0557717 0.011374,0.021874 0.013563,0.0470276 0.014437,0.0719606 0.00065748,0.016622 -0.00109449,0.0332441 -0.00524803,0.0492126 -0.0409016,0.194661 -0.0986457,0.385169 -0.172791,0.569772 -0.0402441,0.0999567 -0.0850827,0.198165 -0.134516,0.293965 -0.00677953,0.0100591 -0.00481102,0.023622 0.00459449,0.0310591 0.010937,0.00874803 0.0273386,0.00568504 0.0343386,-0.00656299 0.111768,-0.154638 0.224189,-0.308835 0.337272,-0.462598 0.15026,-0.204504 0.301398,-0.408138 0.453409,-0.61111 0.0133425,-0.0105 0.028874,-0.017937 0.0454961,-0.021874 0.0207795,-0.00481102 0.0426496,-0.00371654 0.0629921,0.00306299l0.0643031 0.0435276c0.0111575,0.00896457 0.0181535,0.0220906 0.020122,0.0363071 0.00175197,0.0120276 -0.000437008,0.0242795 -0.00590551,0.0349961 -0.11111,0.171913 -0.226378,0.340988 -0.345579,0.507437 -0.172575,0.240811 -0.348209,0.479657 -0.540685,0.704724 -0.0704291,0.0822402 -0.142606,0.162949 -0.216535,0.242126 -0.00962205,0.0139961 -0.0229646,0.0251535 -0.0382756,0.0323701 -0.0170591,0.00809055 -0.0363071,0.0102795 -0.0553386,0.0085315 -0.0251496,-0.00240945 -0.0492126,-0.0124685 -0.0675827,-0.0299685 -0.015748,-0.0148701 -0.0244961,-0.0352126 -0.0317165,-0.0557717 -0.00831102,-0.0234055 -0.012248,-0.0483386 -0.011811,-0.0732717 -0.0019685,-0.137142 0.018811,-0.273843 0.0616811,-0.404201 0.0354331,-0.108047 0.0857402,-0.21063 0.149169,-0.304898 0.00437402,-0.00787402 0.0035,-0.0177165 -0.0019685,-0.0247165 -0.00831102,-0.0107165 -0.0242795,-0.0115945 -0.0339016,-0.0019685 -0.0802717,0.103236 -0.161201,0.205598 -0.243004,0.307524 -0.0881417,0.109579 -0.17126,0.223535 -0.266839,0.326551 -0.0645236,0.0695551 -0.132327,0.136047 -0.203193,0.199256 -0.0194685,0.014437 -0.0417795,0.0247165 -0.0656181,0.0299685 -0.0435276,0.00962205 -0.0898937,0.00459055 -0.126205,-0.0207795 -0.0297441,-0.0207795 -0.0470236,-0.0540236 -0.0597087,-0.0883661 -0.012248,-0.0325866 -0.016626,-0.0678031 -0.0129055,-0.102362 0.0085315,-0.0739252 0.023185,-0.147201 0.0435236,-0.21872 0.0511811,-0.179791 0.136484,-0.347551 0.21435,-0.517717 0.0927362,-0.202319 0.19335,-0.400921 0.301839,-0.595362zm-0.643047 0.580925c0.0472441,-0.0411181 0.0877087,-0.0894567 0.119862,-0.143264 0.0374016,-0.0623346 0.0778622,-0.125764 0.0824567,-0.197724 0.00568898,-0.0883622 -0.018374,-0.177602 -0.0811457,-0.238846 -0.023185,-0.0225276 -0.0498701,-0.0413386 -0.0796142,-0.0542402 -0.0430906,-0.018811 -0.0914252,-0.0190315 -0.13889,-0.0194685 -0.100394,-0.00065748 -0.195539,0.0391535 -0.287402,0.0813661 -0.136921,0.0627717 -0.249126,0.167102 -0.353236,0.276685 -0.109362,0.115047 -0.201224,0.245622 -0.269248,0.388886 -0.0489961,0.10302 -0.0920827,0.209539 -0.109142,0.321961 -0.0120315,0.0793976 -0.0216535,0.160106 -0.00612598,0.238409 0.0129055,0.0653976 0.0310591,0.131012 0.0726181,0.182413 0.0984252,0.12161 0.277559,0.145669 0.427602,0.0957992 0.0376181,-0.0124646 0.0730512,-0.0301811 0.10761,-0.0496496 0.0721772,-0.0406811 0.137138,-0.0927362 0.190945,-0.155728 0.0487756,-0.0573071 0.0879252,-0.122047 0.115705,-0.192039 0.0135591,-0.0441811 -0.00393701,-0.0918622 -0.0428701,-0.116799 -0.0402441,-0.0258071 -0.0931772,-0.0203386 -0.127295,0.013126 -0.0479016,0.0671457 -0.101051,0.130358 -0.158575,0.189413 -0.018374,0.0188071 -0.0369646,0.0376181 -0.0577441,0.0535866 -0.0360866,0.0277756 -0.0732717,0.0566496 -0.117673,0.0632087 -0.0345551,0.00525197 -0.0702087,0.00437402 -0.101047,-0.011374 -0.037622,-0.0194646 -0.0614606,-0.0568661 -0.0743661,-0.0975472 -0.00940551,-0.029311 -0.00743701,-0.0608071 -0.0050315,-0.0918661 0.00240551,-0.0310591 0.011811,-0.0610236 0.019248,-0.0912047 0.0472441,-0.195539 0.139327,-0.376642 0.2535,-0.542433 0.0658346,-0.0955827 0.131453,-0.193134 0.22222,-0.264654 0.0389331,-0.030622 0.0767717,-0.0636496 0.122921,-0.0807087 0.0207795,-0.00765748 0.0419961,-0.0142165 0.0640866,-0.016626 0.0426535,-0.00459055 0.0877087,-0.00502756 0.120953,0.0207795 0.0415591,0.0323701 0.0573071,0.0870512 0.0454961,0.13889 -0.007,0.0304016 -0.0312756,0.0531496 -0.0494331,0.0791772 -0.0174961,0.0251535 -0.0341181,0.0516181 -0.0402441,0.0815827 -0.00874803,0.044185 -0.0164016,0.0929567 0.0142165,0.123362 0.0317165,0.0314961 0.0809291,0.0378386 0.119642,0.0155276zm3.60302 1.24869l-4.96129 0 0 -2.10608 4.96129 0 0 2.10608z"/>
  <path class="fil1 str1" d="M3.21172 7.04178l-1.26313 0 0 -0.188539 0.0544646 0c0.0107165,0.000437008 0.0216535,-0.00218504 0.0286535,-0.0100591 0.00502756,-0.00568898 0.00787402,-0.013126 0.00787402,-0.0207795l0 -0.10761c0.0100591,-0.0343425 0.0282126,-0.0654016 0.0531496,-0.0909921 0.0137795,-0.0142165 0.0295276,-0.0264646 0.0468031,-0.0363071 0.021874,0.017063 0.0463701,0.0304016 0.0728346,0.0389331 0.0378425,0.012248 0.0778661,0.0150906 0.11702,0.00787402l0 -0.266185 -0.100614 0 -0.0409016 0.149827c-0.00612205,0.00765354 -0.0155276,0.0120276 -0.0253701,0.011811 -0.0102795,-0.000220472 -0.020122,-0.00525197 -0.0260276,-0.0137795l-0.0546811 -0.147858 -0.102799 0c-0.0107205,0.000220472 -0.0203425,-0.00634252 -0.0245,-0.016185 -0.00809055,-0.0199055 0.00984252,-0.0404646 0.030622,-0.0349961l0.0918661 0 -0.0522756 -0.0999567 0.260496 0 -0.0323701 0.0999567 0.0791772 0 0 -0.160323c0,-0.013563 0.000877953,-0.0273425 0.00722047,-0.0391535 0.00677953,-0.012685 0.0174961,-0.0225276 0.0306181,-0.0284331 -0.0247126,-0.015748 -0.0378386,-0.0444016 -0.0339016,-0.0732717 0.00459449,-0.0323701 0.0279961,-0.0592756 0.0599331,-0.0629921 0.0395866,-0.00437402 0.0737087,0.026685 0.0752402,0.0667087 0.00109055,0.0304055 -0.0175,0.0579646 -0.0461535,0.0682441 0.012689,0.007 0.023185,0.0174961 0.0299685,0.0304016 0.00677953,0.0129055 0.00787402,0.0275591 0.00787402,0.0422126l0 0.157043c0.0258071,-0.00612205 0.0529291,-0.00437402 0.0778622,0.00524803 0.0264685,0.0102835 0.0476811,0.0299685 0.0643071,0.0531496l0.125547 0.175854c0.0133386,0.018811 0.0240591,0.0398071 0.0415551,0.0544606 0.013563,0.011374 0.0288701,0.0203425 0.0454961,0.026685 0.00437402,-0.0371811 0.0347756,-0.0660551 0.0721772,-0.0682402 0.0406811,-0.00240551 0.0761142,0.027122 0.0811457,0.0675866l0.0796142 0c0.012248,-0.000877953 0.0234055,-0.00656299 0.032811,-0.014437 0.0120276,-0.010063 0.0199016,-0.0240591 0.0220906,-0.0395906l-0.127299 -0.273185 0.32065 0 -0.129047 0.299433c-0.0135591,0.0319331 -0.0321535,0.0629921 -0.0629921,0.0778661 -0.015748,0.00765354 -0.0332441,0.011811 -0.0507441,0.011811l-0.118984 0 -0.021874 0.0463701 -0.0428661 0 -0.026685 -0.0459331 -0.0551181 0c-0.0129055,-0.000220472 -0.0251535,-0.00568898 -0.0365276,-0.011811 -0.010063,-0.0054685 -0.0199055,-0.011374 -0.0264646,-0.0205591l-0.18526 -0.264217c-0.00918504,-0.0115945 -0.0223071,-0.018811 -0.0356496,-0.0251535 -0.0137795,-0.00656299 -0.0286535,-0.0105 -0.0437441,-0.011811l0 0.282807 0.151575 0 -0.000220472 0.223315 0.17476 -0.000653543 0.111547 -0.0903346 0.104988 0.0896772 0.206035 0 0.000220472 0.176071z"/>
  <path class="fil1 str1" d="M5.73031 6.29221l0 0.241909c0.00218898,0.0273386 0.014874,0.0524921 0.0332441,0.0728346 0.0238425,0.0264646 0.0573071,0.0419921 0.0929606,0.0435236l0 -0.0234016c-0.017937,-0.00656299 -0.033685,-0.017937 -0.0454961,-0.0330276 -0.0159685,-0.0205591 -0.0209961,-0.0472441 -0.0207795,-0.0734921l0 -0.210409 0.316929 0 0 0.210409c0.000220472,0.026248 -0.00481102,0.0529331 -0.0207795,0.0734921 -0.011811,0.0150906 -0.0275591,0.0264646 -0.0454921,0.0330276l0 0.0234016c0.0356496,-0.0015315 0.0691142,-0.0170591 0.0929567,-0.0435236 0.018374,-0.0203425 0.0310591,-0.0454961 0.0332441,-0.0728346l0 -0.241909 -0.436787 0zm0.296587 -0.251969l0.0330276 0 0 -0.0444016c0,-0.0115906 0.000220472,-0.0234016 -0.00262205,-0.0347756 -0.0050315,-0.019685 -0.0155315,-0.0376181 -0.030622,-0.0511811l0.000216535 0.130358zm-0.0761142 0l-0.0330276 0 0 -0.12511c-0.000437008,-0.00852756 0.0054685,-0.0159646 0.0137795,-0.0174961 0.011374,-0.0019685 0.021437,0.00787402 0.0194685,0.019248l-0.000220472 0.123358zm-0.110016 0.0437441c0.00852756,-0.00896457 0.0218701,-0.0115906 0.0332441,-0.00634252l0 0.0730551c0,0.00918504 0.00371654,0.0179331 0.010063,0.0244961 0.00612205,0.00612598 0.0142165,0.010063 0.0227441,0.0102795l0.0172795 0 0 -0.107173 0.0518386 0 0 0.10761 0.0146535 0c0.00918504,0 0.018374,-0.00306299 0.0251535,-0.00940551 0.00831102,-0.00765354 0.0120315,-0.0188071 0.0115906,-0.0301811l0 -0.0680236c0.011374,-0.000437008 0.0220945,0.00415354 0.0299685,0.012248 0.00874803,0.00918504 0.00984252,0.022748 0.00984252,0.0356535l0 0.0496496c0.000216535,0.00918504 -0.00109449,0.0190276 -0.00765748,0.0253701 -0.00524803,0.00524803 -0.012248,0.00809449 -0.0194646,0.00809449l-0.177602 0c-0.00743701,0.000216535 -0.014874,-0.00218898 -0.020126,-0.00722047 -0.00568504,-0.0054685 -0.00831102,-0.013122 -0.00809055,-0.0209961l0.000216535 -0.0664921c0,-0.010937 -0.00109055,-0.0229646 0.00634646,-0.030622zm0.0262441 -0.0437441l-0.0330276 0 0 -0.0444016c0,-0.0115906 -0.000216535,-0.0234016 0.00262598,-0.0347756 0.0050315,-0.019685 0.0155276,-0.0376181 0.030622,-0.0511811l-0.000220472 0.130358zm-0.497811 1.01575l1.1542 0c0.022311,-0.0104961 0.037185,-0.0323701 0.0387165,-0.0570866 0.00174803,-0.0293071 -0.0155315,-0.0566496 -0.0428701,-0.0673661 -0.0643031,-0.0367441 -0.132764,-0.0656181 -0.204067,-0.0857402 -0.0861772,-0.0242756 -0.175638,-0.0356496 -0.265094,-0.0336811 -0.016185,0.000653543 -0.0310591,-0.0089685 -0.0369646,-0.0240591 -0.00590551,-0.014874 -0.00174803,-0.0319331 0.0102795,-0.0424331l0.100614 -0.0601496c0.0190276,-0.011374 0.0360906,-0.0258071 0.0500866,-0.0428701 0.0255906,-0.0312756 0.0413386,-0.0693346 0.0422126,-0.109579l0 -0.240815 0.0474646 0c0.015311,-0.00174803 0.0275591,-0.0133425 0.0304016,-0.0284331 0.00393701,-0.0209961 -0.0115906,-0.0406811 -0.0330276,-0.0415591l-0.142169 0 0 -0.222878c-0.00415354,-0.0384921 -0.0229646,-0.0737087 -0.0509606,-0.100831 -0.0629921,-0.0610236 -0.175854,-0.0728346 -0.241689,-0.015311 -0.0111535,0.00984252 -0.0212165,0.0207795 -0.0279961,0.0339016 -0.00722047,0.014 -0.011811,0.0290906 -0.011811,0.0448386l0 0.26028 -0.140421 0c-0.0190276,-0.00240551 -0.0354331,0.0129055 -0.0343386,0.031937 0.000216535,0.00502756 0.0019685,0.00962205 0.00437402,0.0139961 0.00524803,0.00984252 0.0159685,0.0150906 0.0264646,0.0194685 0.013563,0.00568504 0.0286535,0.00743307 0.0433071,0.00481102l0 0.250874c0.00065748,0.0332441 0.013126,0.0649606 0.0312795,0.0929567 0.0317126,0.0485551 0.0833307,0.0807087 0.140854,0.0874882 0.017937,0.00678346 0.029748,0.0238425 0.0299685,0.0428701 0.000216535,0.0159685 -0.00787402,0.0310591 -0.021437,0.0395906 -0.0783031,-0.00175197 -0.156606,0.00568504 -0.233378,0.0220906 -0.0815827,0.0174961 -0.166886,0.0297441 -0.233157,0.0791772 -0.0159646,0.0120315 -0.0332441,0.022748 -0.0448386,0.0389331 -0.0102795,0.014437 -0.019248,0.0304016 -0.0207795,0.0479016 -0.00174803,0.0188071 -0.00174803,0.0395866 0.012252,0.0513976 0.00634252,0.0054685 0.0142165,0.00940551 0.0225276,0.0102795z"/>
 </g>
</svg>
